<svg xmlns="http://www.w3.org/2000/svg" viewBox="0 0 92 64" role="img" aria-label="ICG">
  <rect width="92" height="64" rx="17" fill="#ffc814"/>
  <path d="M20.04 45.00 L20.04 19.00 L24.94 19.00 L24.94 45.00 Z" fill="#15140f"/>
  <path d="M38.98 45.52 C35.76 45.52 33.21 44.62 31.33 42.83 C29.45 41.03 28.51 38.46 28.51 35.12 L28.51 28.88 C28.51 25.54 29.45 22.97 31.33 21.17 C33.21 19.38 35.76 18.48 38.98 18.48 C42.17 18.48 44.64 19.35 46.39 21.10 C48.14 22.84 49.01 25.24 49.01 28.29 L49.01 28.51 L44.18 28.51 L44.18 28.14 C44.18 26.60 43.75 25.34 42.90 24.35 C42.04 23.36 40.74 22.86 38.98 22.86 C37.25 22.86 35.88 23.40 34.89 24.46 C33.90 25.52 33.41 26.97 33.41 28.81 L33.41 35.19 C33.41 37.00 33.90 38.44 34.89 39.52 C35.88 40.60 37.25 41.14 38.98 41.14 C40.74 41.14 42.04 40.64 42.90 39.63 C43.75 38.63 44.18 37.37 44.18 35.86 L44.18 35.19 L49.01 35.19 L49.01 35.71 C49.01 38.76 48.14 41.16 46.39 42.90 C44.64 44.65 42.17 45.52 38.98 45.52 Z" fill="#15140f"/>
  <path d="M61.27 45.52 C59.48 45.52 57.87 45.12 56.42 44.31 C54.97 43.51 53.82 42.33 52.96 40.78 C52.11 39.24 51.68 37.35 51.68 35.12 L51.68 28.88 C51.68 25.54 52.62 22.97 54.51 21.17 C56.39 19.38 58.94 18.48 62.16 18.48 C65.35 18.48 67.82 19.33 69.57 21.02 C71.31 22.72 72.19 25.02 72.19 27.91 L72.19 28.06 L67.36 28.06 L67.36 27.77 C67.36 26.85 67.17 26.02 66.78 25.28 C66.40 24.53 65.82 23.95 65.05 23.51 C64.29 23.08 63.32 22.86 62.16 22.86 C60.42 22.86 59.06 23.40 58.07 24.46 C57.08 25.52 56.59 26.97 56.59 28.81 L56.59 35.19 C56.59 37.00 57.08 38.46 58.07 39.56 C59.06 40.66 60.45 41.21 62.23 41.21 C64.01 41.21 65.31 40.74 66.13 39.80 C66.95 38.86 67.36 37.67 67.36 36.23 L67.36 35.86 L61.19 35.86 L61.19 31.70 L72.19 31.70 L72.19 45.00 L67.65 45.00 L67.65 42.51 L66.99 42.51 C66.81 42.93 66.53 43.38 66.15 43.85 C65.77 44.32 65.19 44.72 64.42 45.04 C63.66 45.36 62.60 45.52 61.27 45.52 Z" fill="#15140f"/>
</svg>
